<svg xmlns="http://www.w3.org/2000/svg" data-name="Layer 1" viewBox="0 0 24 24" id="language"><path d="M20,5.5H4A2.50294,2.50294,0,0,0,1.5,8v8A2.50294,2.50294,0,0,0,4,18.5H20A2.50263,2.50263,0,0,0,22.5,16V8A2.50263,2.50263,0,0,0,20,5.5Zm-8.5,12H4A1.50164,1.50164,0,0,1,2.5,16V8A1.50164,1.50164,0,0,1,4,6.5h7.5Zm10-1.5A1.50164,1.50164,0,0,1,20,17.5H12.5V6.5H20A1.50164,1.50164,0,0,1,21.5,8ZM4.8418,15.47412a.498.498,0,0,0,.63232-.31592L6.02692,13.5H7.97308l.5528,1.6582a.49982.49982,0,1,0,.94824-.3164l-2-6a.52019.52019,0,0,0-.94824,0l-2,6A.49957.49957,0,0,0,4.8418,15.47412ZM7,10.58105,7.63971,12.5H6.36029ZM19,11.5H17.52765a3.64579,3.64579,0,0,0,1.0329,2.07617c.26172.32813.55175.69141.85547,1.14649a.5.5,0,1,1-.832.55468c-.28515-.42773-.55859-.76855-.80468-1.07666A8.18684,8.18684,0,0,1,17,13.105a8.18684,8.18684,0,0,1-.7793,1.0957c-.24609.30811-.51953.64893-.80468,1.07666a.5.5,0,1,1-.832-.55468c.30372-.45508.59375-.81836.85547-1.14649A3.64579,3.64579,0,0,0,16.47235,11.5H15a.5.5,0,0,1,0-1h1.5V9a.5.5,0,0,1,1,0v1.5H19a.5.5,0,0,1,0,1Z"></path></svg>